<?xml version="1.0" encoding="UTF-8"?>
<svg width="96" height="96" viewBox="0 0 64 64" xmlns="http://www.w3.org/2000/svg" role="img" aria-labelledby="title desc">
  <title id="title">LaunchOps rocket (dark-on-light)</title>
  <desc id="desc">Black-stroked rocket for use on white/light backgrounds. Matches the white-on-black variant geometry.</desc>

  <g fill="none" stroke="#111" stroke-width="2.4" stroke-linecap="round" stroke-linejoin="round">
    <!-- Body outline -->
    <path d="M32 6
             C 28 12, 26 18, 26 26
             V 36
             L 22 44
             L 32 50
             L 42 44
             L 38 36
             V 26
             C 38 18, 36 12, 32 6 Z"/>

    <!-- Left fin -->
    <path d="M26 36
             C 22 37, 19 39, 18 42
             C 17 45, 19 48, 22 49
             L 26 44"/>

    <!-- Right fin -->
    <path d="M38 36
             C 42 37, 45 39, 46 42
             C 47 45, 45 48, 42 49
             L 38 44"/>

    <!-- Engine skirt -->
    <path d="M26 44 C 29 45, 35 45, 38 44"/>

    <!-- Flame -->
    <path d="M32 50 C 29 54, 33 58, 32 62 C 36 58, 34 54, 32 50 Z"/>

    <!-- Window ring -->
    <circle cx="32" cy="24.5" r="7"/>

    <!-- Stylized 9 inside the window -->
    <g transform="translate(32,24.5)">
      <path d="M 5 0 A 5 5 0 1 1 -5 0 A 5 5 0 0 1 0 -5"/>
      <path d="M 1 -1 L -3 6"/>
    </g>
  </g>
</svg>
